<svg id="Layer_1" data-name="Layer 1" xmlns="http://www.w3.org/2000/svg" viewBox="0 0 87.24 87.24"><path d="M50.29,26.26c0,1.71.12,3.42,0,5.12-.21,2.33.58,3.25,3,3.12,3.37-.19,6.76,0,10.42,0-.27,2.1-.45,3.77-.72,5.41-.44,2.74,0,6.51-1.67,7.89s-5.38.87-8.19.82c-2.3,0-2.89.81-2.87,3,.09,9.37,0,18.74.06,28.11a11.17,11.17,0,0,0,.19,1.72,47.37,47.37,0,0,1-7.86.64,48.72,48.72,0,0,1-7.88-.64V48.62c-3.27,0-6.33.09-9.38,0-.86,0-2.38-.77-2.4-1.23-.19-4.2-.11-8.42-.11-12.9H35c0-3.88-.07-7.27,0-10.65C35.25,13.3,40.3,6.63,49.57,5.43c4.26-.56,8.69.07,13,.36a2.49,2.49,0,0,1,1.69,1.74c.17,3.35.08,6.73.08,10.45-2.3,0-4.21-.1-6.09,0C52.77,18.32,50.42,20.79,50.29,26.26Z"/></svg>