<svg id="Layer_1" data-name="Layer 1" xmlns="http://www.w3.org/2000/svg" viewBox="0 0 87.24 87.24"><path d="M43.51,79.2c-4.66,0-9.32.08-14,0C17.16,79,8.17,69.92,8.1,57.6c0-9.32-.07-18.64,0-28,.1-12.3,9.14-21.4,21.5-21.56q14-.17,28,0A21.27,21.27,0,0,1,79.06,29.31q.24,14.37,0,28.76A21.2,21.2,0,0,1,57.9,79.18C53.1,79.29,48.31,79.2,43.51,79.2Zm-.06-7c4.66,0,9.33.07,14,0,8.57-.14,14.68-6.08,14.79-14.56q.18-14,0-28c-.1-8.13-5.9-14.3-14-14.53-9.72-.27-19.46-.26-29.18,0a14,14,0,0,0-14.15,14q-.45,14.58,0,29.18c.25,8.17,6.38,13.8,14.57,13.95C34.12,72.27,38.78,72.2,43.45,72.2Z"/><path d="M61.2,43.45a17.41,17.41,0,1,1-34.82.41,17.41,17.41,0,1,1,34.82-.41Zm-6.34,0a11,11,0,0,0-22.08.38,11.34,11.34,0,0,0,11,10.94A11.33,11.33,0,0,0,54.86,43.46Z"/><circle cx="63.86" cy="25.38" r="3.8"/></svg>