<svg id="Layer_1" data-name="Layer 1" xmlns="http://www.w3.org/2000/svg" viewBox="0 0 87.24 87.24"><path d="M67,7.53H20.2A14.32,14.32,0,0,0,5.88,21.85V68.67A14.32,14.32,0,0,0,20.2,83H67A14.32,14.32,0,0,0,81.35,68.67V21.85A14.32,14.32,0,0,0,67,7.53ZM29.94,65.44c-7.46-.19-6,.87-6.12-6-.09-6.15,0-12.29-.05-18.43,0-2,.41-2.9,2.69-2.89,6,0,6-.07,6,5.89v7.78c0,3.64-.08,7.3,0,10.94C32.54,64.63,32.05,65.49,29.94,65.44ZM28.3,34.61a5,5,0,0,1-5.12-4.77A5,5,0,0,1,28,24.79a4.91,4.91,0,1,1,.31,9.82ZM57.53,65.39a18.72,18.72,0,0,1-2.11-.25c0-3.93,0-7.84,0-11.74a41.47,41.47,0,0,0-.13-4.32c-.26-2.25-1.42-3.81-3.83-4s-4.35.83-4.76,3.26a71.41,71.41,0,0,0-.54,8.3c0,1,0,1.91,0,2.88,0,6.34-.42,6.73-6.83,5.78-.61-.09-1.59-.93-1.6-1.43-.1-8.43-.07-16.87-.07-26.1,3.21,1.39,7-1.88,8.6,2.45,2.08-.86,4.09-2.15,6.26-2.53,6.4-1.11,10.69,2.22,11.28,8.78A119.1,119.1,0,0,1,64,59.19C63.87,66.42,65.49,65.3,57.53,65.39Z"/></svg>