<svg id="Layer_1" data-name="Layer 1" xmlns="http://www.w3.org/2000/svg" viewBox="0 0 87.24 87.24"><path d="M7.9,82c1.67-6.3,3.28-11.58,4.4-17a11.94,11.94,0,0,0-.44-6.63C3,37.15,13.51,13.61,35.08,6.63A38.18,38.18,0,0,1,84,34.12c5.24,22.06-9.41,43.32-32.22,46.64-6.8,1-13.3-.31-19.75-2.57a14.86,14.86,0,0,0-7.46-.45C19.29,78.77,14.14,80.38,7.9,82ZM18.63,71.2c7.9-4,14.4-.44,21.34,1.49,13.35,3.72,27.28-2.93,34-15.32A30.74,30.74,0,0,0,31.32,16.44c-12.1,7.2-18.26,21.52-14,34.62C19.42,57.59,22.68,63.66,18.63,71.2Z"/><path d="M57.13,60.29c-8.3-1.41-14.59-4.48-19.44-9.77a74.42,74.42,0,0,1-8.24-11.73c-.9-1.5-1.49-3.91-.93-5.43a21.41,21.41,0,0,1,4.72-7.27c.57-.57,3.87.36,4.7,1.49,2,2.75,4.32,6.07,1.75,9.57-1.84,2.48-1.33,4.28.5,6.1a62.7,62.7,0,0,0,6.46,5.85c2.53,1.9,5,3.32,7.46-.73,1.68-2.77,6.51-1.75,9.91,1.69,2.44,2.46,1.56,5-.64,6.82C61.35,58.53,58.72,59.46,57.13,60.29Z"/></svg>