<svg id="Layer_1" data-name="Layer 1" xmlns="http://www.w3.org/2000/svg" viewBox="0 0 87.24 87.24"><path d="M43.38,72.51c-7.2,0-14.4.07-21.59,0-10.7-.12-17.89-7.22-18-17.82-.1-6.54-.07-13.09,0-19.63.11-10.72,6.84-18.17,17.54-18.42q22.32-.54,44.65,0c10.72.27,17.49,7.77,17.58,18.41q.08,9.57,0,19.14C83.42,65.35,76.28,72.42,65,72.5,57.77,72.55,50.57,72.51,43.38,72.51Zm15-27.12c-7.73-4.18-14.2-7.83-20.82-11.18-2.3-1.17-3.73.09-3.73,2.69,0,5.21,0,10.42,0,15.62,0,3.23,1.62,4.17,4.37,2.85C44.45,52.38,50.66,49.21,58.35,45.39Z"/></svg>